<svg width="40" height="40" viewBox="0 0 40 40" fill="none" xmlns="http://www.w3.org/2000/svg">
<rect width="40" height="40" rx="10" fill="white"/>
<path fill-rule="evenodd" clip-rule="evenodd" d="M15.3807 12.3333C13.1454 12.3333 11.3333 14.1454 11.3333 16.3807C11.3333 17.4541 11.7598 18.4836 12.5188 19.2426L20 26.7239L27.4812 19.2426C28.2402 18.4836 28.6667 17.4541 28.6667 16.3807C28.6667 14.1454 26.8546 12.3333 24.6193 12.3333C23.5459 12.3333 22.5164 12.7598 21.7574 13.5188L20.4714 14.8047C20.2111 15.0651 19.7889 15.0651 19.5286 14.8047L18.2426 13.5188C17.4836 12.7598 16.4541 12.3333 15.3807 12.3333ZM10 16.3807C10 13.409 12.409 11 15.3807 11C16.8078 11 18.1764 11.5669 19.1854 12.576L20 13.3905L20.8146 12.576C21.8236 11.5669 23.1922 11 24.6193 11C27.591 11 30 13.409 30 16.3807C30 17.8078 29.4331 19.1764 28.424 20.1854L20.4714 28.1381C20.2111 28.3984 19.7889 28.3984 19.5286 28.1381L11.576 20.1854C10.5669 19.1764 10 17.8078 10 16.3807Z" fill="#FF868E"/>
</svg>
