<svg width="107" height="24" viewBox="0 0 107 24" fill="none" xmlns="http://www.w3.org/2000/svg">
<path d="M7.84082 12.4577C7.84082 9.90778 9.9079 7.8407 12.4578 7.8407L19.3832 7.8407C21.9331 7.8407 24.0002 9.90778 24.0002 12.4577C24.0002 15.0075 21.9331 17.0746 19.3832 17.0746H12.4578C9.9079 17.0746 7.84082 15.0075 7.84082 12.4577Z" fill="#FF868E"/>
<path d="M12.4578 24C9.9079 24 7.84082 21.9329 7.84082 19.383L7.84082 12.4576C7.84082 9.90772 9.9079 7.84063 12.4578 7.84063V7.84063C15.0077 7.84063 17.0747 9.90772 17.0747 12.4576V19.383C17.0747 21.9329 15.0077 24 12.4578 24V24Z" fill="#FF868E"/>
<path d="M11.5427 2.8856C11.5427 4.47927 10.2508 5.7712 8.65709 5.7712C7.06341 5.7712 5.77148 4.47927 5.77148 2.8856C5.77148 1.29193 7.06341 0 8.65709 0C10.2508 0 11.5427 1.29193 11.5427 2.8856Z" fill="#FF868E"/>
<path d="M5.7712 16.7366C5.7712 18.3302 4.47927 19.6222 2.8856 19.6222C1.29193 19.6222 0 18.3302 0 16.7366C0 15.1429 1.29193 13.851 2.8856 13.851C4.47927 13.851 5.7712 15.1429 5.7712 16.7366Z" fill="#FF868E"/>
<path d="M19.6218 2.8856C19.6218 4.47927 18.3299 5.7712 16.7362 5.7712C15.1425 5.7712 13.8506 4.47927 13.8506 2.8856C13.8506 1.29193 15.1425 0 16.7362 0C18.3299 0 19.6218 1.29193 19.6218 2.8856Z" fill="#FF868E"/>
<path d="M5.7712 8.65684C5.7712 10.2505 4.47927 11.5424 2.8856 11.5424C1.29193 11.5424 0 10.2505 0 8.65684C0 7.06317 1.29193 5.77124 2.8856 5.77124C4.47927 5.77124 5.7712 7.06317 5.7712 8.65684Z" fill="#FF868E"/>
<path d="M31.8945 18.8V6.43518H37.6929C38.6657 6.43518 39.4593 6.62078 40.0737 6.99198C40.7009 7.36318 41.1681 7.86878 41.4753 8.50878C41.7825 9.14878 41.9361 9.87838 41.9361 10.6976C41.9361 11.5296 41.7569 12.2656 41.3985 12.9056C41.0529 13.5456 40.5537 14.0448 39.9009 14.4032C39.2609 14.7488 38.4993 14.9216 37.6161 14.9216H34.4865V18.8H31.8945ZM34.4865 12.8672H37.0785C37.8209 12.8672 38.3777 12.6752 38.7489 12.2912C39.1329 11.8944 39.3249 11.3632 39.3249 10.6976C39.3249 9.98078 39.1457 9.43678 38.7873 9.06558C38.4289 8.68158 37.8913 8.48958 37.1745 8.48958H34.4865V12.8672Z" fill="#1D1D1D"/>
<path d="M48.1119 18.992C46.5375 18.992 45.2895 18.6016 44.3679 17.8208C43.4463 17.0272 42.9855 15.8304 42.9855 14.2304C42.9855 12.784 43.3695 11.6384 44.1375 10.7936C44.9183 9.93598 46.0767 9.50718 47.6127 9.50718C49.0207 9.50718 50.0959 9.87838 50.8383 10.6208C51.5935 11.3504 51.9711 12.3104 51.9711 13.5008V15.152L45.3855 15.152C45.5263 15.8816 45.8591 16.3808 46.3839 16.6496C46.9215 16.9184 47.6767 17.0528 48.6495 17.0528C49.1359 17.0528 49.6287 17.008 50.1279 16.9184C50.6399 16.8288 51.0751 16.7136 51.4335 16.5728V18.416C51.0111 18.608 50.5183 18.7488 49.9551 18.8384C49.3919 18.9408 48.7775 18.992 48.1119 18.992ZM45.3855 13.5584H49.7055V13.0592C49.7055 12.5344 49.5519 12.1248 49.2447 11.8304C48.9375 11.5232 48.4191 11.3696 47.6895 11.3696C46.8319 11.3696 46.2303 11.5424 45.8847 11.888C45.5519 12.2336 45.3855 12.7904 45.3855 13.5584Z" fill="#1D1D1D"/>
<path d="M57.3854 18.992C56.3358 18.992 55.555 18.7168 55.043 18.1664C54.5438 17.616 54.2942 16.8672 54.2942 15.92V11.696H53.0078V9.69918H54.2942V7.74078L56.8862 6.97278V9.69918H59.1902L59.0366 11.696H56.8862V15.7472C56.8862 16.2464 57.0014 16.592 57.2318 16.784C57.4622 16.9632 57.8206 17.0528 58.307 17.0528C58.6654 17.0528 59.0366 16.9888 59.4206 16.8608V18.6464C59.139 18.7616 58.8318 18.8448 58.499 18.896C58.1662 18.96 57.795 18.992 57.3854 18.992Z" fill="#1D1D1D"/>
<path d="M63.9572 18.992C63.2788 18.992 62.6324 18.9408 62.018 18.8384C61.4036 18.7488 60.9108 18.6336 60.5396 18.4928V16.3424C60.9876 16.5216 61.4932 16.6624 62.0564 16.7648C62.6196 16.8544 63.138 16.8992 63.6116 16.8992C64.2516 16.8992 64.6996 16.8608 64.9556 16.784C65.2244 16.7072 65.3588 16.5344 65.3588 16.2656C65.3588 15.9584 65.154 15.7344 64.7444 15.5936C64.3476 15.4528 63.7524 15.2544 62.9588 14.9984C62.1268 14.7168 61.4868 14.3776 61.0388 13.9808C60.5908 13.584 60.3668 12.9952 60.3668 12.2144C60.3668 11.344 60.6804 10.6784 61.3076 10.2176C61.9476 9.74398 62.9716 9.50718 64.3796 9.50718C64.9428 9.50718 65.474 9.55198 65.9732 9.64158C66.4724 9.71838 66.8948 9.81438 67.2404 9.92958V12.0608C66.8948 11.8944 66.498 11.7728 66.05 11.696C65.602 11.6064 65.186 11.5616 64.802 11.5616C64.2516 11.5616 63.81 11.6 63.4772 11.6768C63.1572 11.7536 62.9972 11.92 62.9972 12.176C62.9972 12.4576 63.17 12.656 63.5156 12.7712C63.874 12.8864 64.4244 13.0592 65.1668 13.2896C65.8964 13.5072 66.466 13.744 66.8756 14C67.2852 14.256 67.5732 14.5632 67.7396 14.9216C67.906 15.2672 67.9892 15.7024 67.9892 16.2272C67.9892 18.0704 66.6452 18.992 63.9572 18.992Z" fill="#1D1D1D"/>
<path d="M69.7883 18.8V6.43518L75.5867 6.43518C76.5595 6.43518 77.3531 6.62078 77.9675 6.99198C78.5947 7.36318 79.0619 7.86878 79.3691 8.50878C79.6763 9.14878 79.8299 9.87838 79.8299 10.6976C79.8299 11.5296 79.6507 12.2656 79.2923 12.9056C78.9467 13.5456 78.4475 14.0448 77.7947 14.4032C77.1547 14.7488 76.3931 14.9216 75.5099 14.9216H72.3803V18.8H69.7883ZM72.3803 12.8672H74.9723C75.7147 12.8672 76.2715 12.6752 76.6427 12.2912C77.0267 11.8944 77.2187 11.3632 77.2187 10.6976C77.2187 9.98078 77.0395 9.43678 76.6811 9.06558C76.3227 8.68158 75.7851 8.48958 75.0683 8.48958H72.3803V12.8672Z" fill="#1D1D1D"/>
<path d="M83.7491 18.992C83.1731 18.992 82.6355 18.8896 82.1363 18.6848C81.6499 18.4672 81.2531 18.1536 80.9459 17.744C80.6515 17.3216 80.5043 16.7968 80.5043 16.1696C80.5043 15.2736 80.8179 14.5568 81.4451 14.0192C82.0851 13.4816 83.0259 13.2128 84.2675 13.2128H86.9555V12.9632C86.9555 12.4 86.7955 12.0032 86.4755 11.7728C86.1683 11.5424 85.5411 11.4272 84.5939 11.4272C83.5571 11.4272 82.5587 11.5872 81.5987 11.9072V10.0832C82.0211 9.91678 82.5331 9.78238 83.1347 9.67998C83.7491 9.56478 84.4147 9.50718 85.1315 9.50718C86.5011 9.50718 87.5571 9.78878 88.2995 10.352C89.0547 10.9024 89.4323 11.792 89.4323 13.0208V18.8H87.1859L87.0515 17.9744C86.6931 18.2944 86.2515 18.544 85.7267 18.7232C85.2019 18.9024 84.5427 18.992 83.7491 18.992ZM84.4595 17.2832C85.0355 17.2832 85.5347 17.1872 85.9571 16.9952C86.3795 16.8032 86.7123 16.56 86.9555 16.2656V14.8256H84.3251C83.3139 14.8256 82.8083 15.2416 82.8083 16.0736C82.8083 16.88 83.3587 17.2832 84.4595 17.2832Z" fill="#1D1D1D"/>
<path d="M93.048 18.8L90.648 9.69918H93.24L94.6224 15.6128L96.1392 10.8704V9.69918H98.1168L99.8448 15.6128L101.189 9.69918H103.762L101.381 18.8H99L97.2528 13.4816L95.4672 18.8H93.048Z" fill="#1D1D1D"/>
</svg>
