<svg width="20" height="20" viewBox="0 0 20 20" fill="none" xmlns="http://www.w3.org/2000/svg">
<path fill-rule="evenodd" clip-rule="evenodd" d="M0 10C0 4.47715 4.47715 0 10 0C15.5228 0 20 4.47715 20 10C20 15.5228 15.5228 20 10 20C4.47715 20 0 15.5228 0 10ZM10 1.33333C5.21353 1.33333 1.33333 5.21353 1.33333 10C1.33333 14.7865 5.21353 18.6667 10 18.6667C14.7865 18.6667 18.6667 14.7865 18.6667 10C18.6667 5.21353 14.7865 1.33333 10 1.33333ZM6.66667 8H5.33333V6.66667H6.66667V8ZM14.6667 8H13.3333V6.66667H14.6667V8ZM5.06667 13.4667L5.46667 12.9333C7.73333 9.91111 12.2667 9.91111 14.5333 12.9333L14.9333 13.4667L13.8667 14.2667L13.4667 13.7333C11.7333 11.4222 8.26667 11.4222 6.53333 13.7333L6.13333 14.2667L5.06667 13.4667Z" fill="#FFD280"/>
</svg>
