<svg width="30" height="30" viewBox="0 0 30 30" fill="none" xmlns="http://www.w3.org/2000/svg">
<path fill-rule="evenodd" clip-rule="evenodd" d="M8.07107 4C4.71811 4 2 6.71811 2 10.0711C2 11.6812 2.63963 13.2254 3.77817 14.364L15 25.5858L26.2218 14.364C27.3604 13.2254 28 11.6812 28 10.0711C28 6.71811 25.2819 4 21.9289 4C20.3188 4 18.7746 4.63963 17.636 5.77817L15.7071 7.70711C15.3166 8.09763 14.6834 8.09763 14.2929 7.70711L12.364 5.77818C11.2254 4.63963 9.68121 4 8.07107 4ZM0 10.0711C0 5.61354 3.61354 2 8.07107 2C10.2116 2 12.2646 2.85034 13.7782 4.36396L15 5.58579L16.2218 4.36396C17.7354 2.85034 19.7884 2 21.9289 2C26.3865 2 30 5.61354 30 10.0711C30 12.2116 29.1497 14.2646 27.636 15.7782L15.7071 27.7071C15.3166 28.0976 14.6834 28.0976 14.2929 27.7071L2.36396 15.7782C0.850339 14.2646 0 12.2116 0 10.0711Z" fill="#FF868E"/>
</svg>
