<svg width="20" height="20" viewBox="0 0 20 20" fill="none" xmlns="http://www.w3.org/2000/svg">
<path fill-rule="evenodd" clip-rule="evenodd" d="M0 10C0 4.47715 4.47715 0 10 0C15.5228 0 20 4.47715 20 10C20 15.5228 15.5228 20 10 20C4.47715 20 0 15.5228 0 10ZM10 1.33333C5.21353 1.33333 1.33333 5.21353 1.33333 10C1.33333 14.7865 5.21353 18.6667 10 18.6667C14.7865 18.6667 18.6667 14.7865 18.6667 10C18.6667 5.21353 14.7865 1.33333 10 1.33333ZM6.66667 8H5.33333V6.66667H6.66667V8ZM14.6667 8H13.3333V6.66667H14.6667V8ZM6.13333 11.0667L6.53333 11.6C8.26667 13.9111 11.7333 13.9111 13.4667 11.6L13.8667 11.0667L14.9333 11.8667L14.5333 12.4C12.2667 15.4222 7.73333 15.4222 5.46667 12.4L5.06667 11.8667L6.13333 11.0667Z" fill="#97EAB9"/>
</svg>
